<svg id="visual" viewBox="0 0 900 600" width="900" height="600" xmlns="http://www.w3.org/2000/svg" xmlns:xlink="http://www.w3.org/1999/xlink" version="1.1"><g stroke-width="1" stroke-linejoin="bevel"><path d="M375 315L376 222L321 262Z" fill="#277297" stroke="#277297"></path><path d="M376 222L331 235L321 262Z" fill="#205a7a" stroke="#205a7a"></path><path d="M317 399L393 403L375 315Z" fill="#19435d" stroke="#19435d"></path><path d="M375 315L529 324L376 222Z" fill="#00101c" stroke="#00101c"></path><path d="M321 262L317 399L375 315Z" fill="#297ea6" stroke="#297ea6"></path><path d="M505 160L399 122L376 222Z" fill="#277297" stroke="#277297"></path><path d="M376 222L321 90L331 235Z" fill="#081a28" stroke="#081a28"></path><path d="M393 403L529 324L375 315Z" fill="#246688" stroke="#246688"></path><path d="M529 324L505 160L376 222Z" fill="#246688" stroke="#246688"></path><path d="M331 235L190 280L321 262Z" fill="#081a28" stroke="#081a28"></path><path d="M321 262L190 280L317 399Z" fill="#246688" stroke="#246688"></path><path d="M162 239L190 280L331 235Z" fill="#00101c" stroke="#00101c"></path><path d="M386 0L321 90L399 122Z" fill="#19435d" stroke="#19435d"></path><path d="M399 122L321 90L376 222Z" fill="#0c2435" stroke="#0c2435"></path><path d="M393 403L486 431L529 324Z" fill="#19435d" stroke="#19435d"></path><path d="M464 471L486 431L393 403Z" fill="#0c2435" stroke="#0c2435"></path><path d="M529 324L560 209L505 160Z" fill="#277297" stroke="#277297"></path><path d="M588 128L474 96L505 160Z" fill="#19435d" stroke="#19435d"></path><path d="M505 160L474 96L399 122Z" fill="#081a28" stroke="#081a28"></path><path d="M675 381L573 261L529 324Z" fill="#0c2435" stroke="#0c2435"></path><path d="M529 324L573 261L560 209Z" fill="#1d4e6b" stroke="#1d4e6b"></path><path d="M213 117L162 239L331 235Z" fill="#277297" stroke="#277297"></path><path d="M190 280L219 416L317 399Z" fill="#0c2435" stroke="#0c2435"></path><path d="M317 399L426 482L393 403Z" fill="#246688" stroke="#246688"></path><path d="M73 380L219 416L190 280Z" fill="#19435d" stroke="#19435d"></path><path d="M321 90L213 117L331 235Z" fill="#19435d" stroke="#19435d"></path><path d="M281 499L426 482L317 399Z" fill="#205a7a" stroke="#205a7a"></path><path d="M426 482L464 471L393 403Z" fill="#19435d" stroke="#19435d"></path><path d="M219 416L281 499L317 399Z" fill="#112e42" stroke="#112e42"></path><path d="M582 494L567 430L486 431Z" fill="#205a7a" stroke="#205a7a"></path><path d="M486 431L567 430L529 324Z" fill="#00101c" stroke="#00101c"></path><path d="M699 189L588 128L560 209Z" fill="#0c2435" stroke="#0c2435"></path><path d="M560 209L588 128L505 160Z" fill="#297ea6" stroke="#297ea6"></path><path d="M699 189L560 209L573 261Z" fill="#277297" stroke="#277297"></path><path d="M213 117L112 200L162 239Z" fill="#15384f" stroke="#15384f"></path><path d="M162 239L84 282L190 280Z" fill="#205a7a" stroke="#205a7a"></path><path d="M476 0L386 0L474 96Z" fill="#19435d" stroke="#19435d"></path><path d="M474 96L386 0L399 122Z" fill="#277297" stroke="#277297"></path><path d="M321 90L224 0L213 117Z" fill="#081a28" stroke="#081a28"></path><path d="M386 0L329 0L321 90Z" fill="#277297" stroke="#277297"></path><path d="M213 117L78 106L112 200Z" fill="#15384f" stroke="#15384f"></path><path d="M112 200L84 282L162 239Z" fill="#00101c" stroke="#00101c"></path><path d="M219 416L199 533L281 499Z" fill="#19435d" stroke="#19435d"></path><path d="M575 0L476 0L474 96Z" fill="#00101c" stroke="#00101c"></path><path d="M329 0L224 0L321 90Z" fill="#0c2435" stroke="#0c2435"></path><path d="M464 471L582 494L486 431Z" fill="#1d4e6b" stroke="#1d4e6b"></path><path d="M567 430L675 381L529 324Z" fill="#277297" stroke="#277297"></path><path d="M477 600L582 494L464 471Z" fill="#1d4e6b" stroke="#1d4e6b"></path><path d="M477 600L464 471L426 482Z" fill="#081a28" stroke="#081a28"></path><path d="M62 500L199 533L219 416Z" fill="#297ea6" stroke="#297ea6"></path><path d="M306 600L412 600L426 482Z" fill="#15384f" stroke="#15384f"></path><path d="M84 282L73 380L190 280Z" fill="#081a28" stroke="#081a28"></path><path d="M582 494L675 381L567 430Z" fill="#246688" stroke="#246688"></path><path d="M121 0L78 106L213 117Z" fill="#15384f" stroke="#15384f"></path><path d="M0 164L0 324L84 282Z" fill="#246688" stroke="#246688"></path><path d="M84 282L0 324L73 380Z" fill="#15384f" stroke="#15384f"></path><path d="M306 600L426 482L281 499Z" fill="#1d4e6b" stroke="#1d4e6b"></path><path d="M199 533L306 600L281 499Z" fill="#277297" stroke="#277297"></path><path d="M696 64L575 0L588 128Z" fill="#0c2435" stroke="#0c2435"></path><path d="M588 128L575 0L474 96Z" fill="#0c2435" stroke="#0c2435"></path><path d="M736 299L699 189L573 261Z" fill="#246688" stroke="#246688"></path><path d="M412 600L477 600L426 482Z" fill="#205a7a" stroke="#205a7a"></path><path d="M224 0L121 0L213 117Z" fill="#19435d" stroke="#19435d"></path><path d="M675 381L736 299L573 261Z" fill="#1d4e6b" stroke="#1d4e6b"></path><path d="M0 164L84 282L112 200Z" fill="#205a7a" stroke="#205a7a"></path><path d="M122 600L177 600L199 533Z" fill="#0c2435" stroke="#0c2435"></path><path d="M0 102L0 164L78 106Z" fill="#205a7a" stroke="#205a7a"></path><path d="M78 106L0 164L112 200Z" fill="#205a7a" stroke="#205a7a"></path><path d="M62 500L219 416L73 380Z" fill="#277297" stroke="#277297"></path><path d="M199 533L177 600L306 600Z" fill="#112e42" stroke="#112e42"></path><path d="M0 403L62 500L73 380Z" fill="#19435d" stroke="#19435d"></path><path d="M699 189L696 64L588 128Z" fill="#112e42" stroke="#112e42"></path><path d="M762 132L696 64L699 189Z" fill="#205a7a" stroke="#205a7a"></path><path d="M0 324L0 403L73 380Z" fill="#1d4e6b" stroke="#1d4e6b"></path><path d="M582 494L736 503L675 381Z" fill="#1d4e6b" stroke="#1d4e6b"></path><path d="M830 397L838 310L736 299Z" fill="#277297" stroke="#277297"></path><path d="M477 600L582 600L582 494Z" fill="#246688" stroke="#246688"></path><path d="M736 299L764 214L699 189Z" fill="#246688" stroke="#246688"></path><path d="M0 0L0 102L78 106Z" fill="#277297" stroke="#277297"></path><path d="M792 0L678 0L696 64Z" fill="#297ea6" stroke="#297ea6"></path><path d="M696 64L678 0L575 0Z" fill="#00101c" stroke="#00101c"></path><path d="M62 500L122 600L199 533Z" fill="#246688" stroke="#246688"></path><path d="M0 600L122 600L62 500Z" fill="#00101c" stroke="#00101c"></path><path d="M764 214L762 132L699 189Z" fill="#112e42" stroke="#112e42"></path><path d="M715 600L736 503L582 494Z" fill="#246688" stroke="#246688"></path><path d="M736 299L838 310L764 214Z" fill="#19435d" stroke="#19435d"></path><path d="M0 403L0 522L62 500Z" fill="#19435d" stroke="#19435d"></path><path d="M121 0L0 0L78 106Z" fill="#1d4e6b" stroke="#1d4e6b"></path><path d="M830 397L736 299L675 381Z" fill="#15384f" stroke="#15384f"></path><path d="M764 214L900 205L762 132Z" fill="#19435d" stroke="#19435d"></path><path d="M736 503L830 397L675 381Z" fill="#1d4e6b" stroke="#1d4e6b"></path><path d="M582 600L715 600L582 494Z" fill="#19435d" stroke="#19435d"></path><path d="M736 503L828 481L830 397Z" fill="#205a7a" stroke="#205a7a"></path><path d="M0 522L0 600L62 500Z" fill="#297ea6" stroke="#297ea6"></path><path d="M900 136L792 0L762 132Z" fill="#205a7a" stroke="#205a7a"></path><path d="M762 132L792 0L696 64Z" fill="#297ea6" stroke="#297ea6"></path><path d="M793 600L828 481L736 503Z" fill="#0c2435" stroke="#0c2435"></path><path d="M830 397L900 321L838 310Z" fill="#205a7a" stroke="#205a7a"></path><path d="M900 439L900 321L830 397Z" fill="#081a28" stroke="#081a28"></path><path d="M838 310L900 205L764 214Z" fill="#1d4e6b" stroke="#1d4e6b"></path><path d="M900 321L900 205L838 310Z" fill="#277297" stroke="#277297"></path><path d="M715 600L793 600L736 503Z" fill="#00101c" stroke="#00101c"></path><path d="M828 481L900 439L830 397Z" fill="#246688" stroke="#246688"></path><path d="M900 205L900 136L762 132Z" fill="#00101c" stroke="#00101c"></path><path d="M900 497L900 439L828 481Z" fill="#205a7a" stroke="#205a7a"></path><path d="M900 600L900 497L828 481Z" fill="#246688" stroke="#246688"></path><path d="M900 136L900 0L792 0Z" fill="#205a7a" stroke="#205a7a"></path><path d="M793 600L900 600L828 481Z" fill="#00101c" stroke="#00101c"></path></g></svg>